<svg width="15" height="18" viewBox="0 0 15 18" fill="none" xmlns="http://www.w3.org/2000/svg">
<path d="M7.5 8.75C8.36529 8.75 9.21116 8.49341 9.93062 8.01268C10.6501 7.53195 11.2108 6.84867 11.542 6.04924C11.8731 5.24982 11.9597 4.37015 11.7909 3.52148C11.6221 2.67281 11.2054 1.89326 10.5936 1.28141C9.98174 0.669555 9.20219 0.252877 8.35352 0.0840664C7.50485 -0.084744 6.62519 0.00189561 5.82576 0.333029C5.02633 0.664162 4.34305 1.22492 3.86232 1.94438C3.38159 2.66385 3.125 3.50971 3.125 4.375C3.125 5.53532 3.58594 6.64812 4.40641 7.46859C5.22688 8.28907 6.33968 8.75 7.5 8.75ZM7.5 1.25C8.11807 1.25 8.72225 1.43328 9.23616 1.77666C9.75006 2.12004 10.1506 2.6081 10.3871 3.17912C10.6236 3.75013 10.6855 4.37847 10.565 4.98466C10.4444 5.59085 10.1467 6.14767 9.70971 6.58471C9.27267 7.02175 8.71585 7.31938 8.10966 7.43996C7.50347 7.56053 6.87513 7.49865 6.30411 7.26213C5.7331 7.0256 5.24504 6.62506 4.90166 6.11116C4.55828 5.59726 4.375 4.99307 4.375 4.375C4.375 3.5462 4.70424 2.75134 5.29029 2.16529C5.87634 1.57924 6.6712 1.25 7.5 1.25Z" fill="#2F303C"/>
<path d="M8.125 10H6.875C5.05164 10 3.30295 10.7243 2.01364 12.0136C0.724328 13.303 0 15.0516 0 16.875C0 17.0408 0.0658481 17.1997 0.183058 17.3169C0.300269 17.4342 0.45924 17.5 0.625 17.5H14.375C14.5408 17.5 14.6997 17.4342 14.8169 17.3169C14.9342 17.1997 15 17.0408 15 16.875C15 15.0516 14.2757 13.303 12.9864 12.0136C11.697 10.7243 9.94836 10 8.125 10ZM1.2875 16.25C1.44118 14.8754 2.09594 13.6056 3.12667 12.6833C4.1574 11.7609 5.49184 11.2507 6.875 11.25H8.125C9.50816 11.2507 10.8426 11.7609 11.8733 12.6833C12.9041 13.6056 13.5588 14.8754 13.7125 16.25H1.2875Z" fill="#2F303C"/>
</svg>
