<svg width="20" height="20" viewBox="0 0 20 20" fill="none" xmlns="http://www.w3.org/2000/svg">
<path d="M12.1975 19.0004C12.0883 19.0004 11.9789 18.9791 11.875 18.9358C11.6668 18.8495 11.5046 18.6875 11.4188 18.4794C11.1291 17.7805 10.4959 17.5315 9.99992 17.5315C9.50393 17.5315 8.87072 17.7805 8.58104 18.4795C8.49478 18.6875 8.3328 18.8497 8.12463 18.9356C7.91644 19.022 7.68717 19.0219 7.47898 18.9356L5.46331 18.1006C5.25525 18.0144 5.09326 17.8526 5.00715 17.6445C4.92089 17.4363 4.92089 17.2072 5.00715 16.9988C5.29682 16.2999 5.0251 15.6762 4.67429 15.3253C4.32373 14.9742 3.69968 14.7027 3.00067 14.9923C2.79287 15.0786 2.56345 15.0787 2.35528 14.9923C2.1471 14.9061 1.98511 14.7441 1.89887 14.5359L1.06411 12.5206C0.886316 12.091 1.09111 11.5968 1.52027 11.4188C2.21954 11.1292 2.46853 10.4959 2.46853 10.0001C2.46853 9.50423 2.21928 8.87102 1.52053 8.58147C1.09111 8.40367 0.886323 7.90946 1.06411 7.47979L1.89912 5.46386C1.98513 5.2558 2.14736 5.09382 2.35528 5.0077C2.56334 4.92144 2.79225 4.92144 3.00067 5.0077C3.69955 5.29738 4.32347 5.02528 4.67429 4.67472C5.02512 4.3239 5.2967 3.70011 5.00728 3.0011C4.82923 2.57169 5.03402 2.07721 5.46344 1.89942L7.47936 1.06441C7.90855 0.885984 8.40325 1.09116 8.58104 1.52057C8.87097 2.21958 9.50406 2.46857 10 2.46857C10.496 2.46857 11.1292 2.21957 11.4189 1.52057C11.5967 1.09138 12.0902 0.886717 12.5206 1.06415L14.5367 1.89939C14.9658 2.07744 15.1706 2.5714 14.9928 3.00107C14.7031 3.70008 14.9749 4.32387 15.3254 4.67456C15.676 5.02538 16.3004 5.29736 16.9991 5.0078C17.4285 4.83026 17.9227 5.03442 18.1009 5.46396L18.9359 7.47963C19.1137 7.9093 18.9089 8.40352 18.4797 8.58144C17.7807 8.87111 17.5317 9.50407 17.5317 10.0001C17.5315 10.496 17.7807 11.1293 18.4797 11.4189C18.48 11.4189 18.48 11.4192 18.4801 11.4192C18.9093 11.5976 19.1137 12.092 18.9355 12.5213L18.1005 14.5368C17.9225 14.9666 17.4275 15.1706 16.9987 14.993C16.2991 14.7035 15.676 14.9747 15.3251 15.3258C14.9743 15.6764 14.7029 16.3004 14.9922 16.9993C15.17 17.4291 14.9652 17.9233 14.5358 18.1011L12.5203 18.9361C12.4164 18.9791 12.3069 19.0004 12.1976 19.0004L12.1975 19.0004ZM9.99966 16.7315C10.9623 16.7315 11.7893 17.2841 12.1577 18.1733C12.1624 18.1845 12.1703 18.1923 12.1811 18.1967C12.1921 18.2013 12.2031 18.2013 12.2141 18.1967L14.2298 17.3617C14.2517 17.3525 14.2622 17.327 14.2531 17.305C13.8847 16.4158 14.0787 15.4403 14.7594 14.7597C15.4401 14.0789 16.4161 13.8854 17.3049 14.2537C17.3263 14.2623 17.3524 14.2521 17.3613 14.2304L18.1963 12.2147C18.2055 12.1927 18.1951 12.1675 18.1733 12.1581C17.2838 11.7894 16.7313 10.9628 16.7315 10.0001C16.7315 9.03744 17.2841 8.2106 18.1733 7.84245C18.1953 7.83341 18.2057 7.8078 18.1967 7.78582L17.3617 5.77028C17.3526 5.74843 17.3277 5.73764 17.3053 5.74693C16.4163 6.11533 15.4406 5.92134 14.7596 5.24027C14.0792 4.55958 13.8852 3.58433 14.2539 2.69509C14.2629 2.67324 14.2525 2.64762 14.2305 2.63871L12.2145 1.80322C12.1926 1.79368 12.167 1.8046 12.1581 1.82645C11.7897 2.71607 10.9629 3.26853 10.0002 3.26853C9.03748 3.26853 8.21063 2.71594 7.84248 1.82645C7.83344 1.8046 7.80846 1.7943 7.78586 1.80322L5.7698 2.6381C5.74783 2.64727 5.73741 2.6725 5.74645 2.69448C6.11485 3.58397 5.92086 4.55936 5.24005 5.24001C4.55936 5.9207 3.58375 6.11469 2.69451 5.74641C2.68371 5.74202 2.67229 5.74227 2.66137 5.74641C2.65032 5.75106 2.64253 5.75884 2.63814 5.76964L1.80313 7.7857C1.79409 7.80754 1.80451 7.83291 1.82648 7.84207C2.71598 8.21035 3.26831 9.03732 3.26831 9.99976C3.26831 10.9622 2.71572 11.7894 1.82622 12.1577C1.80438 12.1669 1.79383 12.1923 1.80299 12.2143L2.63801 14.2299C2.64265 14.241 2.65044 14.2488 2.66136 14.2532C2.67241 14.2579 2.68333 14.2579 2.69438 14.2532C3.58401 13.8848 4.55926 14.0788 5.24004 14.7595C5.92073 15.4403 6.11472 16.4158 5.74632 17.305C5.74192 17.3161 5.74192 17.327 5.74632 17.338C5.75071 17.3492 5.75875 17.357 5.76954 17.3614L7.78547 18.1964C7.79627 18.2008 7.80732 18.2011 7.81849 18.1964C7.82954 18.192 7.83733 18.184 7.84185 18.1731C8.21012 17.2841 9.03697 16.7315 9.99966 16.7315L9.99966 16.7315Z" fill="white" stroke="white" stroke-width="0.5"/>
<path d="M10.0001 15.7755C6.81586 15.7755 4.2251 13.1847 4.2251 10.0005C4.2251 6.81605 6.81586 4.2251 10.0001 4.2251C13.1847 4.2251 15.7755 6.81586 15.7755 10.0001C15.7755 13.1844 13.1847 15.7755 10.0001 15.7755ZM10.0001 5.02517C7.25681 5.02517 5.02517 7.25707 5.02517 10.0001C5.02517 12.7434 7.25707 14.9751 10.0001 14.9751C12.7432 14.9751 14.9754 12.7436 14.9754 10.0001C14.9754 7.25707 12.7435 5.02517 10.0001 5.02517Z" fill="white" stroke="white" stroke-width="0.5"/>
<path d="M10.0002 11.6289C8.9393 11.6289 8.07629 10.7659 8.07629 9.70498V8.85869C8.07629 7.7978 8.9393 6.93457 10.0002 6.93457C11.0611 6.93457 11.9241 7.79758 11.9241 8.85869V9.70498C11.9241 10.7659 11.0611 11.6289 10.0002 11.6289ZM10.0002 7.73461C9.38042 7.73461 8.8764 8.23889 8.8764 8.85866V9.70495C8.8764 10.3247 9.38042 10.8287 10.0002 10.8287C10.62 10.8287 11.124 10.3247 11.124 9.70495V8.85866C11.124 8.23889 10.62 7.73461 10.0002 7.73461Z" fill="white" stroke="white" stroke-width="0.5"/>
<path d="M12.4106 15.2046C12.1897 15.2046 12.0106 15.0256 12.0106 14.8046V13.6391C12.0106 12.5305 11.1088 11.6286 10 11.6286C8.89159 11.6286 7.98952 12.5304 7.98952 13.6391V14.8042C7.98952 15.0251 7.81047 15.2042 7.58949 15.2042C7.36862 15.2042 7.18945 15.0252 7.18945 14.8042V13.6391C7.18945 12.0894 8.45037 10.8286 9.99995 10.8286C11.5497 10.8286 12.8105 12.0895 12.8105 13.6391V14.8046C12.8107 15.0257 12.6315 15.2046 12.4106 15.2046H12.4106Z" fill="white" stroke="white" stroke-width="0.5"/>
</svg>
