<svg width="18" height="18" viewBox="0 0 18 18" fill="none" xmlns="http://www.w3.org/2000/svg">
<path d="M8.09568 10.2349V3.65555C2.50383 4.07021 -0.0658774 10.908 3.9237 14.8994C7.91543 18.8889 14.753 16.3193 15.1675 10.7274H8.58817C8.31574 10.7274 8.09543 10.507 8.09543 10.2346L8.09568 10.2349ZM9.08312 3.14483V9.74025H15.6785C15.9529 9.74025 16.1732 9.96057 16.1732 10.235C16.1732 16.9684 7.99379 20.3632 3.22704 15.5965C-1.53971 10.8297 1.85513 2.65027 8.58856 2.65027C8.86294 2.65027 9.08326 2.87059 9.08326 3.14497L9.08312 3.14483ZM10.7335 8.09005H16.8182C16.5779 4.84145 13.9821 2.24569 10.7335 2.00535V8.09005ZM17.3289 9.07749H10.2389C9.96643 9.07749 9.74613 8.85717 9.74613 8.58475V1.4947C9.74613 1.22032 9.96645 1 10.2389 1C14.4269 1 17.8235 4.39685 17.8235 8.58468C17.8235 8.85711 17.6032 9.07742 17.3288 9.07742L17.3289 9.07749Z" fill="#1F1F1F" stroke="#1F1F1F" stroke-width="0.2"/>
</svg>
