<svg width="18" height="18" viewBox="0 0 18 18" fill="none" xmlns="http://www.w3.org/2000/svg">
<path d="M12.9594 11.4243L13.7675 12.2325L17 8.99996L13.7675 5.76746L12.9594 6.5756L14.8123 8.42853H6.71429V9.57138H14.8123L12.9594 11.4243Z" fill="#1F1F1F" stroke="#1F1F1F" stroke-width="0.2"/>
<path d="M13.839 13.8488C12.5439 15.1439 10.8221 15.8571 8.99057 15.8571C7.15889 15.8571 5.43679 15.1439 4.14157 13.8488C2.84632 12.5536 2.14286 10.8316 2.14286 9C2.14286 7.16854 2.84632 5.44661 4.14161 4.15139C5.43686 2.85618 7.15893 2.14286 8.99057 2.14286C10.822 2.14286 12.5438 2.85618 13.839 4.15136C13.9288 4.24137 14.0161 4.33381 14.1009 4.42857H15.5555C14.11 2.35614 11.7088 1 8.99057 1C4.57218 1 1 4.58207 1 9C1 13.4184 4.57218 17 8.99057 17C11.7089 17 14.1102 15.6439 15.5556 13.5714H14.101C14.0162 13.6663 13.9288 13.7587 13.839 13.8488Z" fill="#1F1F1F" stroke="#1F1F1F" stroke-width="0.2"/>
</svg>
