<svg width="20" height="16" viewBox="0 0 20 16" fill="none" xmlns="http://www.w3.org/2000/svg">
<path d="M13.5059 1C12.7585 1 12.1233 1.49783 11.8975 2.18647L6.01221 4.63303H3.13291C1.95687 4.63303 1 5.61352 1 6.81867V8.27703C1 9.48215 1.95683 10.4627 3.13291 10.4627H3.45863V13.5803C3.45863 14.4927 4.18314 15.2353 5.07373 15.2353C5.96418 15.2353 6.68883 14.4929 6.68883 13.5803L6.68897 10.7438L11.9483 12.9302C12.2089 13.5475 12.8089 13.9805 13.5059 13.9805C14.4415 13.9805 15.2024 13.2004 15.2024 12.2418V2.73834C15.2024 1.78001 14.4412 1 13.5058 1H13.5059ZM6.68923 5.60386L11.8095 3.47536V11.6201L6.68923 9.49162V5.60386ZM2.13273 8.27681V6.81845C2.13273 6.25319 2.58158 5.79325 3.1332 5.79325H5.55685V9.30201L3.1332 9.30216C2.58158 9.30216 2.13273 8.84222 2.13273 8.27681V8.27681ZM5.07402 14.0745C4.80787 14.0745 4.59118 13.8526 4.59118 13.5797V10.4624H5.55682V13.58C5.55682 13.8528 5.34015 14.0745 5.07398 14.0745H5.07402ZM14.0702 12.2417C14.0702 12.5607 13.817 12.82 13.5059 12.82C13.1947 12.82 12.9416 12.5605 12.9416 12.2417L12.9414 2.73827C12.9414 2.41936 13.1946 2.16003 13.5057 2.16003C13.8169 2.16003 14.0699 2.4195 14.0699 2.73827L14.0702 12.2417ZM19.1176 7.49019C19.1176 7.81071 18.8643 8.07034 18.5515 8.07034H17.1492C16.8365 8.07034 16.5831 7.81072 16.5831 7.49019C16.5831 7.16966 16.8364 6.91005 17.1492 6.91005H18.5514C18.8641 6.91005 19.1176 7.16981 19.1176 7.49019ZM16.0192 5.33428C15.863 5.05674 15.9555 4.70185 16.2264 4.54173L17.441 3.82318C17.7118 3.66278 18.0582 3.75791 18.2144 4.03545C18.3707 4.31299 18.2781 4.66788 18.0073 4.828L16.7927 5.54655C16.7034 5.59929 16.606 5.62434 16.51 5.62434C16.3144 5.62464 16.1241 5.52047 16.0193 5.33428H16.0192ZM18.2144 10.9448C18.1095 11.1308 17.9192 11.2348 17.7235 11.2348C17.6275 11.2348 17.5301 11.2098 17.4408 11.157L16.2265 10.4385C15.9557 10.2784 15.863 9.92346 16.0194 9.64594C16.1756 9.3684 16.522 9.27341 16.7928 9.43367L18.0071 10.1522C18.2778 10.3126 18.3707 10.6671 18.2144 10.9448H18.2144Z" fill="#1F1F1F" stroke="#1F1F1F" stroke-width="0.2"/>
</svg>
