<svg width="19" height="17" viewBox="0 0 19 17" fill="none" xmlns="http://www.w3.org/2000/svg">
<path d="M15.5294 14.8824C15.5294 14.3674 15.3247 13.8736 14.9606 13.5096C14.5964 13.1455 14.1026 12.941 13.5876 12.9412C13.0726 12.9413 12.5789 13.1462 12.215 13.5103C11.851 13.8746 11.6468 14.3686 11.647 14.8836C11.6474 15.3985 11.8523 15.8922 12.2167 16.256C12.5811 16.6199 13.0751 16.824 13.5901 16.8235C14.1044 16.8225 14.5975 16.6176 14.961 16.2537C15.3245 15.8899 15.5289 15.3967 15.5294 14.8824L15.5294 14.8824ZM13.1464 14.8824C13.1464 14.7029 13.2545 14.5411 13.4203 14.4725C13.5862 14.4038 13.7769 14.4417 13.9039 14.5686C14.0306 14.6955 14.0686 14.8863 14 15.0521C13.9313 15.2178 13.7695 15.3259 13.5901 15.3259C13.4724 15.3259 13.3596 15.2792 13.2764 15.196C13.1931 15.1128 13.1464 15 13.1464 14.8824L13.1464 14.8824Z" fill="white"/>
<path d="M9.05877 14.8824C9.05877 14.3674 8.85416 13.8736 8.48998 13.5096C8.1258 13.1455 7.63198 12.941 7.11701 12.9412C6.60204 12.9413 6.10832 13.1462 5.74444 13.5103C5.38039 13.8746 5.17619 14.3686 5.17645 14.8836C5.17684 15.3985 5.38171 15.8922 5.74615 16.256C6.11056 16.6199 6.60454 16.824 7.11952 16.8235C7.63386 16.8225 8.1269 16.6176 8.49042 16.2537C8.85393 15.8899 9.05827 15.3967 9.05881 14.8824L9.05877 14.8824ZM6.67581 14.8824C6.67581 14.7029 6.78393 14.5411 6.94975 14.4725C7.11558 14.4038 7.30635 14.4417 7.43327 14.5686C7.56006 14.6955 7.59805 14.8863 7.52937 15.0521C7.46069 15.2178 7.29891 15.3259 7.11949 15.3259C7.00185 15.3259 6.88903 15.2792 6.80586 15.196C6.72255 15.1128 6.67581 15 6.67581 14.8824L6.67581 14.8824Z" fill="white"/>
<path d="M17.3064 2.78264H4.47782L4.27458 1.4934H4.27473C4.2135 1.0794 3.99652 0.700177 3.6639 0.425709C3.33128 0.151354 2.90527 0.000137647 2.46438 0H0.81262C0.522231 0 0.253966 0.146921 0.108843 0.385378C-0.0362809 0.623842 -0.0362809 0.917695 0.108843 1.15627C0.253966 1.39474 0.522264 1.54165 0.81262 1.54165H2.46652C2.56984 1.54098 2.65728 1.61384 2.66961 1.71116L3.92116 9.84715C4.00421 10.3476 4.27263 10.8037 4.67809 11.1336C5.08356 11.4633 5.59955 11.6454 6.13371 11.6471H14.5879C15.1032 11.6477 15.6029 11.4794 16.0024 11.1707C16.4019 10.862 16.6766 10.4319 16.7802 9.95306L18.1029 3.69975C18.1488 3.47405 18.0863 3.24069 17.9323 3.06327C17.7782 2.88583 17.5488 2.78286 17.3064 2.78246L17.3064 2.78264ZM15.1852 9.6509C15.1555 9.78008 15.0799 9.89555 14.9712 9.97835C14.8627 10.0612 14.7273 10.106 14.5879 10.1056H6.1337C5.98617 10.1071 5.84303 10.0577 5.73091 9.96665C5.61881 9.87552 5.54539 9.74889 5.52414 9.61042L4.71348 4.32442H16.3128L15.1852 9.6509Z" fill="white"/>
</svg>
