<svg width="21" height="21" viewBox="0 0 21 21" fill="none" xmlns="http://www.w3.org/2000/svg">
<path d="M10.7059 10.0588C11.2207 10.0588 11.7145 9.85428 12.0785 9.49032C12.4426 9.12626 12.6471 8.63253 12.6471 8.11763C12.6471 7.60282 12.4426 7.10908 12.0785 6.74503C11.7144 6.38106 11.2207 6.17651 10.7059 6.17651C10.1911 6.17651 9.6973 6.38108 9.33325 6.74503C8.96917 7.1091 8.76471 7.60282 8.76471 8.11763C8.76685 8.63186 8.9721 9.12432 9.33568 9.48781C9.69927 9.85138 10.1918 10.0566 10.7059 10.0589L10.7059 10.0588ZM10.7059 6.87272C11.036 6.87272 11.3527 7.00385 11.5862 7.23736C11.8197 7.47077 11.9508 7.78743 11.9508 8.11758C11.9508 8.44783 11.8196 8.7644 11.5862 8.9979C11.3527 9.23131 11.036 9.36253 10.7059 9.36253C10.3757 9.36253 10.059 9.23131 9.82554 8.9979C9.59212 8.76439 9.46099 8.44783 9.46099 8.11758C9.46167 7.7878 9.5931 7.47173 9.82651 7.2386C10.0598 7.00558 10.3761 6.87444 10.7059 6.87406V6.87272Z" fill="#1F1F1F" stroke="#1F1F1F" stroke-width="0.2"/>
<path d="M3.98955 10.4047C4.46255 10.4928 4.90086 10.7157 5.25263 11.0472C5.60425 11.3786 5.85482 11.8047 5.97454 12.2753C6.02998 12.494 6.22484 12.6469 6.44824 12.6471H14.9636C15.187 12.6469 15.3818 12.494 15.4373 12.2753C15.557 11.8047 15.8076 11.3786 16.1592 11.0472C16.5109 10.7157 16.9493 10.4928 17.4223 10.4047C17.6548 10.3618 17.8236 10.1571 17.8236 9.9183V6.31718C17.8236 6.07841 17.6548 5.87369 17.4223 5.83068C16.9493 5.74268 16.5109 5.51963 16.1592 5.18818C15.8076 4.85671 15.557 4.43063 15.4373 3.95999C15.3818 3.74136 15.187 3.5884 14.9636 3.58826H6.44824C6.22484 3.58839 6.02998 3.74137 5.97454 3.95999C5.85479 4.43063 5.60422 4.85674 5.25263 5.18818C4.9009 5.51964 4.46255 5.74268 3.98955 5.83068C3.75701 5.87372 3.58826 6.07842 3.58826 6.31718V9.9183C3.58826 10.1571 3.75703 10.3618 3.98955 10.4047ZM4.56703 6.70465V6.70479C5.59796 6.38161 6.42408 5.59659 6.80654 4.57696H14.6053C14.9877 5.59659 15.8138 6.38158 16.8448 6.70479V9.53251C15.8143 9.85529 14.9883 10.6393 14.6053 11.6583H6.80654C6.42408 10.6386 5.59796 9.85375 4.56703 9.53057V6.70465Z" fill="#1F1F1F" stroke="#1F1F1F" stroke-width="0.2"/>
<path d="M7.47057 8.11764C7.47057 8.47498 7.18086 8.7647 6.82351 8.7647C6.46617 8.7647 6.17645 8.47498 6.17645 8.11764C6.17645 7.7603 6.46617 7.47058 6.82351 7.47058C7.18085 7.47058 7.47057 7.7603 7.47057 8.11764Z" fill="#1F1F1F" stroke="#1F1F1F" stroke-width="0.2"/>
<path d="M15.2353 8.11764C15.2353 8.47498 14.9456 8.7647 14.5882 8.7647C14.2309 8.7647 13.9412 8.47498 13.9412 8.11764C13.9412 7.7603 14.2309 7.47058 14.5882 7.47058C14.9456 7.47058 15.2353 7.7603 15.2353 8.11764Z" fill="#1F1F1F" stroke="#1F1F1F" stroke-width="0.2"/>
<path d="M3.07923 20.4118H18.3325C18.8838 20.4112 19.4124 20.185 19.8022 19.783C20.192 19.3809 20.4112 18.8357 20.4118 18.267V3.14473C20.4112 2.57611 20.1919 2.03087 19.8022 1.6288C19.4124 1.22673 18.8838 1.00056 18.3325 1H3.07923C2.52798 1.00058 1.99939 1.22675 1.6096 1.6288C1.21981 2.03085 1.00054 2.57611 1 3.14473V18.267C1.00057 18.8357 1.21982 19.3809 1.6096 19.783C1.99937 20.185 2.52798 20.4112 3.07923 20.4118ZM18.3307 19.3645H3.07923C2.79723 19.3639 2.52685 19.2482 2.32743 19.0425C2.128 18.8368 2.01582 18.5579 2.01525 18.267V17.5527C2.33635 17.7524 2.70418 17.8582 3.07925 17.8585H18.3326C18.7076 17.8582 19.0754 17.7524 19.3966 17.5527V18.267C19.396 18.5579 19.2838 18.8368 19.0844 19.0425C18.885 19.2482 18.6146 19.3639 18.3326 19.3645H18.3307ZM19.3967 15.7138C19.3961 16.0048 19.2839 16.2835 19.0845 16.4892C18.8851 16.695 18.6147 16.8108 18.3327 16.8113H3.0794C2.7974 16.8108 2.52702 16.695 2.32759 16.4892C2.12817 16.2835 2.01599 16.0048 2.01542 15.7138V14.9891C2.33652 15.1888 2.70435 15.2946 3.07942 15.2949H18.3327C18.7078 15.2946 19.0756 15.1888 19.3967 14.9891L19.3967 15.7138ZM2.0153 3.14488C2.01587 2.854 2.12805 2.5751 2.32748 2.36939C2.5269 2.16368 2.79729 2.04797 3.07928 2.04739H18.3326C18.6146 2.04797 18.885 2.16368 19.0844 2.36939C19.2838 2.5751 19.396 2.85401 19.3966 3.14488V13.1502C19.396 13.4411 19.2838 13.72 19.0844 13.9257C18.885 14.1314 18.6146 14.2472 18.3326 14.2477H3.07928C2.79728 14.2472 2.5269 14.1314 2.32748 13.9257C2.12805 13.72 2.01587 13.4411 2.0153 13.1502V3.14488Z" fill="#1F1F1F" stroke="#1F1F1F" stroke-width="0.2"/>
</svg>
