<svg width="20" height="20" viewBox="0 0 20 20" fill="none" xmlns="http://www.w3.org/2000/svg">
<path d="M17.1046 9.09254V8.04571C17.1046 4.1605 13.944 1 10.0589 1C6.17369 1 3.01308 4.16058 3.01308 8.04571V9.09254C1.86555 9.27368 1 10.2802 1 11.4679C1 12.6555 1.86555 13.6621 3.01308 13.8432V13.8835C3.01308 14.6686 3.6371 15.2926 4.4222 15.2926C5.2073 15.2926 5.83132 14.6686 5.83132 13.8835V9.05217C5.83132 8.26708 5.2073 7.64306 4.4222 7.64306C4.20075 7.64306 3.99938 7.68337 3.81824 7.78405C3.95922 4.46243 6.69702 1.80526 10.0588 1.80526C13.4206 1.80526 16.1584 4.46257 16.2993 7.78405C16.1182 7.70359 15.9168 7.64306 15.6954 7.64306C14.9103 7.64306 14.2863 8.26708 14.2863 9.05217V13.8835C14.2863 14.6686 14.9103 15.2926 15.6954 15.2926C16.4805 15.2926 17.1045 14.6686 17.1045 13.8835V13.8432C17.5675 13.7628 17.97 13.5614 18.3124 13.2595V13.4811C18.3124 15.474 16.6819 17.1046 14.6889 17.1046H13.2194C13.0382 16.4202 12.4142 15.8967 11.6693 15.8967C10.7835 15.8967 10.0588 16.6214 10.0588 17.5072C10.0588 18.3929 10.7835 19.1176 11.6693 19.1176C12.4141 19.1176 13.0381 18.5943 13.2194 17.9097H14.6889C17.1248 17.9097 19.1176 15.9168 19.1176 13.481V11.4679C19.1176 10.2803 18.2521 9.27375 17.1046 9.09261L17.1046 9.09254ZM3.01308 13.018C2.32867 12.8369 1.80516 12.2129 1.80516 11.4679C1.80516 10.7231 2.32852 10.0789 3.01308 9.91782V13.018ZM4.4222 8.44836C4.76441 8.44836 5.02616 8.7101 5.02616 9.05231V13.8837C5.02616 14.2058 4.76442 14.4876 4.4222 14.4876C4.07998 14.4876 3.81824 14.2058 3.81824 13.8837V9.05231C3.81824 8.71011 4.07998 8.44836 4.4222 8.44836ZM16.2994 13.8836C16.2994 14.2057 16.0376 14.4876 15.6954 14.4876C15.3532 14.4876 15.0915 14.2058 15.0915 13.8836V9.05227C15.0915 8.71007 15.3532 8.44832 15.6954 8.44832C16.0376 8.44832 16.2994 8.71006 16.2994 9.05227V13.8836ZM11.6693 18.3123C11.2264 18.3123 10.8641 17.9501 10.8641 17.5072C10.8641 17.0643 11.2264 16.702 11.6693 16.702C12.1122 16.702 12.4744 17.0643 12.4744 17.5072C12.4744 17.9499 12.1122 18.3123 11.6693 18.3123ZM17.1046 13.018V9.91782C17.789 10.099 18.3125 10.723 18.3125 11.4679C18.3125 12.2129 17.7891 12.8369 17.1046 13.018ZM10.401 12.6959L11.0855 11.6693H11.8706C12.5349 11.6693 13.0785 11.1257 13.0785 10.4613V8.04571C13.0785 7.3814 12.5349 6.8378 11.8706 6.8378H8.24702C7.5827 6.8378 7.0391 7.38137 7.0391 8.04571V10.4613C7.0391 11.1257 7.58266 11.6693 8.24702 11.6693H9.03212L9.71653 12.6959C9.79699 12.8166 9.91789 12.877 10.0587 12.877C10.1997 12.877 10.3205 12.8166 10.4009 12.6959H10.401ZM9.59589 11.0452C9.51542 10.9245 9.39452 10.8641 9.25368 10.8641H8.24714C8.0257 10.8641 7.84456 10.683 7.84456 10.4615L7.84442 8.04574C7.84442 7.8243 8.02557 7.64317 8.247 7.64317H11.8705C12.092 7.64317 12.2731 7.82431 12.2731 8.04574V10.4614C12.2731 10.6828 12.092 10.864 11.8705 10.864H10.864C10.723 10.864 10.6023 10.9243 10.5218 11.0451L10.0588 11.7497L9.59589 11.0452ZM10.864 9.6562H9.25352C9.03207 9.6562 8.85094 9.47505 8.85094 9.25362C8.85094 9.03218 9.03208 8.85104 9.25352 8.85104H10.864C11.0855 8.85104 11.2666 9.03219 11.2666 9.25362C11.2667 9.47506 11.0855 9.6562 10.864 9.6562Z" fill="#1F1F1F" stroke="#1F1F1F" stroke-width="0.5"/>
</svg>
