<svg width="19" height="19" viewBox="0 0 19 19" fill="none" xmlns="http://www.w3.org/2000/svg">
<path d="M16.9329 6.93775H16.5787C16.3782 6.93816 16.1974 6.8175 16.1206 6.63236C16.044 6.44722 16.0864 6.23418 16.2283 6.09266L16.4797 5.84912C16.6465 5.68221 16.7402 5.45579 16.7402 5.21969C16.7402 4.98374 16.6465 4.75733 16.4797 4.5904L14.2412 2.34389C14.0741 2.17711 13.8478 2.08337 13.6117 2.08337C13.3757 2.08337 13.1494 2.17711 12.9823 2.34389L12.733 2.59323C12.5915 2.73516 12.3783 2.77768 12.1932 2.70092C12.008 2.62416 11.8875 2.44343 11.8878 2.24297V1.89064C11.8878 1.65414 11.7938 1.42732 11.6263 1.26011C11.4588 1.09305 11.2317 0.999451 10.9952 1H7.82837C7.59215 1 7.36558 1.09388 7.19869 1.26094C7.03163 1.42785 6.93775 1.65442 6.93775 1.89062V2.24487C6.93817 2.44533 6.8175 2.62619 6.63236 2.70295C6.44722 2.77958 6.23418 2.73719 6.09267 2.59527L5.84913 2.34386C5.68221 2.17708 5.45579 2.08334 5.2197 2.08334C4.98375 2.08334 4.75733 2.17708 4.5904 2.34386L2.34389 4.58238C2.17711 4.74943 2.08337 4.97571 2.08337 5.21181C2.08337 5.44789 2.17711 5.67417 2.34389 5.84124L2.59323 6.09058C2.73516 6.23209 2.77768 6.44525 2.70092 6.63038C2.62416 6.81552 2.44343 6.93605 2.24297 6.93577H1.89064C1.65414 6.93577 1.42732 7.02979 1.26011 7.19726C1.09305 7.36473 0.999451 7.59183 1 7.82832V10.9952C1 11.2314 1.09388 11.458 1.26094 11.6248C1.42785 11.7919 1.65442 11.8858 1.89062 11.8858H2.24487C2.44533 11.8854 2.62619 12.006 2.70296 12.1912C2.77958 12.3763 2.73719 12.5894 2.59527 12.7309L2.34386 12.9744C2.17708 13.1413 2.08334 13.3677 2.08334 13.6038C2.08334 13.8398 2.17708 14.0662 2.34386 14.2331L4.58238 16.4796C4.74943 16.6464 4.97572 16.7402 5.21181 16.7402C5.4479 16.7402 5.67418 16.6464 5.84125 16.4796L6.09059 16.2303C6.2321 16.0884 6.44526 16.0458 6.63039 16.1226C6.81553 16.1994 6.93605 16.3801 6.93578 16.5806V16.9329C6.93578 17.1694 7.0298 17.3962 7.19726 17.5634C7.36473 17.7305 7.59184 17.8241 7.82832 17.8235H10.9952C11.2314 17.8235 11.458 17.7296 11.6249 17.5626C11.7919 17.3957 11.8858 17.1691 11.8858 16.9329V16.5787C11.8854 16.3782 12.006 16.1973 12.1912 16.1206C12.3763 16.044 12.5894 16.0863 12.7309 16.2283L12.9744 16.4797C13.1413 16.6465 13.3678 16.7402 13.6039 16.7402C13.8398 16.7402 14.0662 16.6465 14.2331 16.4797L16.4797 14.2392C16.6464 14.0722 16.7402 13.8457 16.7402 13.6098C16.7402 13.3737 16.6464 13.1473 16.4797 12.9803L16.2303 12.731V12.7309C16.0884 12.5894 16.0459 12.3763 16.1226 12.1912C16.1994 12.006 16.3801 11.8854 16.5806 11.8858H16.9329C17.1691 11.8858 17.3957 11.7919 17.5626 11.6248C17.7296 11.4579 17.8235 11.2314 17.8235 10.9952V7.82832C17.8235 7.59209 17.7296 7.36553 17.5626 7.19864C17.3957 7.03158 17.1691 6.9377 16.9329 6.9377L16.9329 6.93775ZM16.8339 10.8962H16.5787C16.1852 10.8966 15.808 11.0531 15.5298 11.3314C15.2518 11.6097 15.0955 11.987 15.0955 12.3805C15.0955 12.7739 15.2516 13.1513 15.5297 13.4296L15.7098 13.6098L13.6098 15.7097L13.4296 15.5296V15.5297C13.1513 15.2516 12.7738 15.0955 12.3805 15.0955C11.987 15.0955 11.6097 15.2518 11.3313 15.5298C11.053 15.808 10.8966 16.1852 10.8962 16.5787V16.834H7.92733V16.5787C7.92692 16.1852 7.77049 15.808 7.49218 15.5298C7.21385 15.2518 6.83652 15.0955 6.44304 15.0955C6.0497 15.0955 5.67223 15.2516 5.3939 15.5297L5.21373 15.7099L3.11383 13.6098L3.294 13.4296H3.29386C3.57192 13.1513 3.72806 12.7738 3.72806 12.3805C3.72806 11.987 3.57177 11.6097 3.29372 11.3314C3.01553 11.053 2.63834 10.8966 2.24486 10.8962H1.98959V7.92736H2.24486C2.63834 7.92695 3.01553 7.77053 3.29372 7.49221C3.57178 7.21388 3.72806 6.83656 3.72806 6.44308C3.72806 6.04974 3.57191 5.67227 3.29386 5.39394L3.11369 5.21377L5.21374 3.11387L5.39391 3.29404V3.2939C5.67224 3.57195 6.04971 3.72809 6.44305 3.72809C6.83653 3.72809 7.21385 3.57181 7.49219 3.29376C7.77052 3.01556 7.92695 2.63838 7.92734 2.2449V1.98963H10.8962V2.2449C10.8966 2.63838 11.053 3.01557 11.3313 3.29376C11.6097 3.57181 11.987 3.72809 12.3805 3.72809C12.7738 3.72809 13.1513 3.57195 13.4296 3.2939L13.6098 3.11373L15.7097 5.21377L15.5295 5.39394H15.5297C15.2516 5.67227 15.0955 6.04974 15.0955 6.44308C15.0955 6.83656 15.2518 7.21389 15.5298 7.49222C15.808 7.77055 16.1852 7.92698 16.5787 7.92737H16.8339V10.8962Z" fill="#1F1F1F" stroke="#1F1F1F" stroke-width="0.5"/>
<path d="M9.41174 4.88232C8.21044 4.88232 7.05842 5.35946 6.20901 6.20901C5.35946 7.05842 4.88232 8.21044 4.88232 9.41174C4.88232 10.613 5.35946 11.7651 6.20901 12.6145C7.05842 13.464 8.21044 13.9411 9.41174 13.9411C10.613 13.9411 11.7651 13.464 12.6145 12.6145C13.464 11.7651 13.9411 10.613 13.9411 9.41174C13.9396 8.21101 13.4619 7.05982 12.6128 6.2107C11.7637 5.36158 10.6125 4.88387 9.41174 4.88232ZM9.41174 12.9346C8.47738 12.9346 7.58135 12.5635 6.92067 11.9028C6.25998 11.2421 5.88886 10.3461 5.88886 9.41174C5.88886 8.47738 6.25998 7.58135 6.92067 6.92067C7.58135 6.25998 8.47738 5.88886 9.41174 5.88886C10.3461 5.88886 11.2421 6.25998 11.9028 6.92067C12.5635 7.58135 12.9346 8.47738 12.9346 9.41174C12.9335 10.3457 12.5621 11.2412 11.9017 11.9017C11.2412 12.5621 10.3457 12.9335 9.41174 12.9346Z" fill="#1F1F1F" stroke="#1F1F1F" stroke-width="0.5"/>
</svg>
