<svg width="16" height="16" viewBox="0 0 16 16" fill="none" xmlns="http://www.w3.org/2000/svg">
<path d="M2.451 7.47056H6.01959C6.82354 7.47056 7.47059 6.82351 7.47059 6.01956V2.45099C7.47059 1.64705 6.82354 1 6.01959 1L2.451 1.00014C1.64705 1.00014 1 1.64719 1 2.45113V6.0197C1.00014 6.8235 1.64719 7.47059 2.451 7.47059V7.47056ZM1.78438 2.45103C1.78438 2.07845 2.07843 1.78441 2.451 1.78441H6.01959C6.39217 1.78441 6.68621 2.07846 6.68621 2.45103V6.0196C6.68621 6.39218 6.39215 6.68622 6.01959 6.68622H2.451C2.07842 6.68622 1.78438 6.39216 1.78438 6.0196V2.45103Z" fill="#1F1F1F" stroke="#1F1F1F" stroke-width="0.4"/>
<path d="M13.7842 1.00025H10.2156C9.4117 1.00025 8.76465 1.64727 8.76465 2.45119V6.01964C8.76465 6.82356 9.4117 7.47059 10.2156 7.47059H13.7842C14.5882 7.47059 15.2352 6.82356 15.2352 6.01964L15.2351 2.45084C15.2351 1.64706 14.588 1 13.7842 1L13.7842 1.00025ZM14.4509 6.01961C14.4509 6.39217 14.1568 6.68621 13.7842 6.68621H10.2156C9.84307 6.68621 9.54902 6.39216 9.54902 6.01961V2.45115C9.54902 2.07859 9.84308 1.78456 10.2156 1.78456H13.7842C14.1568 1.78456 14.4509 2.0786 14.4509 2.45115V6.01961Z" fill="#1F1F1F" stroke="#1F1F1F" stroke-width="0.4"/>
<path d="M2.451 15.2353H6.01959C6.82354 15.2353 7.47059 14.5882 7.47059 13.7843V10.2157C7.47059 9.41176 6.82354 8.76471 6.01959 8.76471H2.451C1.64705 8.76471 1 9.41176 1 10.2157V13.7843C1.00014 14.5881 1.64719 15.2352 2.451 15.2352V15.2353ZM1.78438 10.2157C1.78438 9.84316 2.07843 9.54912 2.451 9.54912H6.01959C6.39217 9.54912 6.68621 9.84318 6.68621 10.2157V13.7843C6.68621 14.1569 6.39215 14.451 6.01959 14.451H2.451C2.07842 14.451 1.78438 14.1569 1.78438 13.7843V10.2157Z" fill="#1F1F1F" stroke="#1F1F1F" stroke-width="0.4"/>
<path d="M12 8.76471C10.2157 8.76471 8.76465 10.2157 8.76465 12.0001C8.76465 13.7844 10.2157 15.2353 12 15.2353C13.7844 15.2353 15.2352 13.7844 15.2352 12.0001C15.2352 10.2157 13.7843 8.76471 12 8.76471ZM12 14.451C10.647 14.451 9.54903 13.353 9.54903 12C9.54903 10.647 10.647 9.54902 12 9.54902C13.353 9.54902 14.451 10.647 14.451 12C14.451 13.353 13.353 14.451 12 14.451Z" fill="#1F1F1F" stroke="#1F1F1F" stroke-width="0.4"/>
</svg>
