<svg width="17" height="17" viewBox="0 0 17 17" fill="none" xmlns="http://www.w3.org/2000/svg">
<path d="M15.8012 10.6837H15.7801C15.5037 10.6837 15.2386 10.7935 15.0432 10.989C14.8478 11.1844 14.738 11.4495 14.738 11.7259V14.3682C14.738 14.5078 14.6825 14.6417 14.5838 14.7404C14.4851 14.8391 14.3512 14.8946 14.2116 14.8946H2.63178C2.49218 14.8946 2.3583 14.8391 2.25959 14.7404C2.16088 14.6417 2.10542 14.5078 2.10542 14.3682V2.78839C2.10542 2.6488 2.16088 2.51491 2.25959 2.4162C2.3583 2.31749 2.49218 2.26204 2.63178 2.26204H7.3795C7.65591 2.26204 7.92099 2.15224 8.11644 1.95679C8.31189 1.76134 8.42169 1.49626 8.42169 1.21985V1.1988C8.42169 0.922396 8.31189 0.657312 8.11644 0.461865C7.92099 0.266417 7.65591 0.156616 7.3795 0.156616H1.04218C0.765779 0.156616 0.500696 0.266417 0.305249 0.461865C0.109801 0.657312 0 0.922396 0 1.1988L0 15.9578C0 16.2342 0.109801 16.4993 0.305249 16.6947C0.500696 16.8902 0.765779 17 1.04218 17H15.8012C16.0776 17 16.3427 16.8902 16.5381 16.6947C16.7336 16.4993 16.8434 16.2342 16.8434 15.9578L16.8328 15.9473H16.8434V11.7259C16.8434 11.4495 16.7336 11.1844 16.5381 10.989C16.3427 10.7935 16.0776 10.6837 15.8012 10.6837Z" fill="#204E98"/>
<path d="M13.1294 3.16323C10.1403 3.37641 7.83958 4.35753 6.27998 6.0903C5.06706 7.45546 4.34979 9.18968 4.24404 11.0128C4.22657 11.1691 4.24227 11.3273 4.2901 11.4772C4.33793 11.627 4.41683 11.765 4.52164 11.8823C4.62644 11.9996 4.75481 12.0935 4.89834 12.1578C5.04188 12.2221 5.19737 12.2554 5.35465 12.2555L5.40729 12.2502C5.64685 12.224 5.86953 12.1143 6.03625 11.9403C6.20296 11.7662 6.30304 11.5391 6.31893 11.2986C6.39935 9.89135 6.94118 8.54982 7.86063 7.48146C9.0223 6.20136 10.8045 5.46551 13.1589 5.27603V5.42025H13.1294L13.1068 5.56131L11.8936 6.78614C11.6976 6.98481 11.5877 7.25265 11.5877 7.53172C11.5877 7.81079 11.6976 8.07864 11.8936 8.2773C11.99 8.37518 12.105 8.4529 12.2318 8.50595C12.3586 8.559 12.4946 8.58631 12.632 8.58631C12.7695 8.58631 12.9055 8.559 13.0323 8.50595C13.1591 8.4529 13.274 8.37518 13.3705 8.2773L16.5371 5.08022C16.7332 4.88153 16.8432 4.61357 16.8432 4.33438C16.8432 4.05518 16.7332 3.78722 16.5371 3.58853L13.3789 0.465663C13.2825 0.367869 13.1675 0.290217 13.0408 0.237216C12.9141 0.184215 12.7781 0.156921 12.6407 0.156921C12.5034 0.156921 12.3674 0.184215 12.2406 0.237216C12.1139 0.290217 11.999 0.367869 11.9025 0.465663C11.7062 0.664288 11.5962 0.932271 11.5962 1.21151C11.5962 1.49075 11.7062 1.75873 11.9025 1.95735L13.1294 3.16271V3.16323Z" fill="#204E98"/>
</svg>
