<svg width="19" height="16" viewBox="0 0 19 16" fill="none" xmlns="http://www.w3.org/2000/svg">
<path d="M0.25 1.6C0.25 1.24112 0.391105 0.897455 0.641447 0.644478C0.891702 0.391589 1.23056 0.25 1.58333 0.25H17.4167C17.7694 0.25 18.1083 0.391588 18.3586 0.644478C18.6089 0.897455 18.75 1.24112 18.75 1.6C18.75 1.95888 18.6089 2.30255 18.3586 2.55552C18.1083 2.80841 17.7694 2.95 17.4167 2.95H1.58333C1.23056 2.95 0.891702 2.80841 0.641447 2.55552C0.391105 2.30254 0.25 1.95888 0.25 1.6ZM0.641447 7.04448L0.463748 6.86863L0.641447 7.04448C0.891702 6.79159 1.23056 6.65 1.58333 6.65H13.1944C13.5472 6.65 13.8861 6.79159 14.1363 7.04448C14.3867 7.29746 14.5278 7.64112 14.5278 8C14.5278 8.35888 14.3867 8.70254 14.1363 8.95552C13.8861 9.20841 13.5472 9.35 13.1944 9.35H1.58333C1.23056 9.35 0.891702 9.20841 0.641447 8.95552C0.391105 8.70255 0.25 8.35888 0.25 8C0.25 7.64112 0.391105 7.29746 0.641447 7.04448ZM0.641447 13.4445C0.891702 13.1916 1.23056 13.05 1.58333 13.05H8.97222C9.325 13.05 9.66385 13.1916 9.91411 13.4445C10.1645 13.6975 10.3056 14.0411 10.3056 14.4C10.3056 14.7589 10.1645 15.1025 9.91411 15.3555C9.66385 15.6084 9.325 15.75 8.97222 15.75H1.58333C1.23056 15.75 0.891702 15.6084 0.641447 15.3555C0.391105 15.1025 0.25 14.7589 0.25 14.4C0.25 14.0411 0.391105 13.6975 0.641447 13.4445Z" fill="white" stroke="#121326" stroke-width="0.5"/>
</svg>
