<svg width="20" height="20" viewBox="0 0 20 20" fill="none" xmlns="http://www.w3.org/2000/svg">
<path d="M11 17.2682V12C10.9992 11.8684 11.0245 11.7379 11.0742 11.6161C11.124 11.4943 11.1973 11.3834 11.29 11.29L11.3606 11.3608L11.3608 11.3607M11 17.2682L11.3608 11.3607M11 17.2682L11.0447 17.2906L11 17.38H10.9V17.33L9 16.38L11 17.2682ZM11.3608 11.3607C11.3608 11.3606 11.3609 11.3605 11.361 11.3604L16.6606 6.07078L16.8317 5.9H16.59H3.41H3.16825L3.33936 6.07078L8.639 11.3604C8.63908 11.3605 8.63917 11.3606 8.63925 11.3607C8.72254 11.4447 8.78845 11.5444 8.8332 11.6539C8.87798 11.7636 8.90069 11.881 8.9 11.9994L8.9 12L8.9 16.38V16.4418L8.95528 16.4694L10.9553 17.4694L11.1 17.5418V17.38V12V11.9994C11.0993 11.881 11.122 11.7636 11.1668 11.6539C11.2115 11.5444 11.2775 11.4447 11.3608 11.3607ZM19.9 4.17003V4.17V3C19.9 2.23087 19.5945 1.49325 19.0506 0.94939C18.5068 0.405535 17.7691 0.1 17 0.1H3C2.23087 0.1 1.49324 0.405535 0.94939 0.94939C0.405535 1.49325 0.1 2.23087 0.1 3V4.16853C0.112209 4.56993 0.207653 4.96442 0.380289 5.32701L0.390001 5.34741V5.37V5.40877C0.525732 5.71081 0.715696 5.98547 0.950529 6.21911L0.95071 6.21929L7.07071 12.3393L7.1 12.3686V12.41L7.1 16.9997C7.1 16.9998 7.1 16.9999 7.1 17C7.10056 17.1661 7.14707 17.3288 7.23439 17.4701C7.32174 17.6114 7.44651 17.7258 7.59488 17.8006C7.59492 17.8006 7.59496 17.8007 7.595 17.8007L11.5947 19.8005L11.5956 19.801C11.7209 19.8652 11.8595 19.8991 12.0003 19.9C12.1687 19.9005 12.3338 19.8538 12.477 19.7652C12.6067 19.6841 12.7136 19.5714 12.7876 19.4375C12.8616 19.3036 12.9003 19.1531 12.9 19.0002V19V12.41V12.3684L12.9295 12.3391L19.0895 6.21911C19.3243 5.98547 19.5143 5.71081 19.65 5.40876V5.37V5.34915L19.6583 5.33003C19.8179 4.96412 19.9001 4.56921 19.9 4.17003ZM7 12.41L0.879999 6.29L7 12.41ZM13 12.41V19V12.41ZM2 4.1H1.9V4V3C1.9 2.70826 2.01589 2.42847 2.22218 2.22218C2.42847 2.01589 2.70826 1.9 3 1.9H17C17.2917 1.9 17.5715 2.01589 17.7778 2.22218C17.9841 2.42847 18.1 2.70826 18.1 3V4V4.1H18H2Z" fill="white" stroke="#121326" stroke-width="0.2"/>
</svg>
