<svg width="13" height="17" viewBox="0 0 13 17" fill="none" xmlns="http://www.w3.org/2000/svg">
<path d="M12.9334 5.60943C12.8727 5.46386 12.774 5.33895 12.6485 5.24882C12.5231 5.1587 12.376 5.10698 12.2238 5.09952H8.48776L9.52373 1.07129C9.55672 0.945242 9.56137 0.812961 9.53732 0.684731C9.51327 0.556502 9.46117 0.435776 9.38506 0.331935C9.30906 0.229092 9.21147 0.145748 9.09977 0.0882962C8.98806 0.0308442 8.86521 0.000810371 8.74063 0.000498413H3.03059C2.84643 -0.00607358 2.66556 0.0525083 2.51744 0.166703C2.36932 0.280897 2.26267 0.443976 2.21487 0.629378L0.028737 9.12775C-0.00425712 9.25381 -0.00890979 9.38609 0.0151407 9.51432C0.0391912 9.64254 0.0912969 9.76327 0.167409 9.86711C0.244238 9.9711 0.343137 10.0551 0.456355 10.1126C0.569573 10.1701 0.694035 10.1995 0.819986 10.1985H3.97683L2.50037 15.9265C2.452 16.1112 2.4649 16.3075 2.537 16.4836C2.6091 16.6597 2.73616 16.8053 2.89759 16.8967C3.05903 16.9882 3.24539 17.0202 3.42646 16.9875C3.60754 16.9549 3.77272 16.8595 3.89525 16.7168L12.7866 6.51875C12.8925 6.39798 12.9627 6.24794 12.9887 6.08664C13.0147 5.92534 12.9956 5.75964 12.9334 5.60943ZM4.94753 12.986L5.82035 9.58667C5.85335 9.46061 5.858 9.32833 5.83395 9.2001C5.8099 9.07187 5.75779 8.95115 5.68168 8.84731C5.60569 8.74446 5.5081 8.66112 5.3964 8.60367C5.28469 8.54622 5.16184 8.51618 5.03726 8.51587H1.90489L3.65054 1.70017H7.67204L6.63608 5.7284C6.60282 5.85678 6.59893 5.99149 6.62474 6.12171C6.65055 6.25193 6.70532 6.37402 6.78467 6.47818C6.86401 6.58233 6.9657 6.66563 7.08157 6.72139C7.19744 6.77714 7.32424 6.80379 7.4518 6.7992H10.3639L4.94753 12.986Z" fill="white"/>
</svg>
