<svg width="20" height="15" viewBox="0 0 20 15" fill="none" xmlns="http://www.w3.org/2000/svg">
<path d="M18.9999 13.6489V11.728C19.0003 11.3063 18.8743 10.893 18.6359 10.5349C18.3976 10.1769 18.0564 9.88845 17.6515 9.70256L15.4747 8.67992C15.3917 8.64099 15.3395 8.5615 15.3398 8.47472V7.86613L15.438 7.74005L15.4382 7.74017C15.7179 7.36907 15.9446 6.96531 16.1123 6.53933C16.4842 6.32269 16.7107 5.94244 16.7115 5.53289V4.68132C16.7109 4.43907 16.631 4.20271 16.4822 4.00428V3.50925C16.5333 2.91423 16.3288 2.32474 15.914 1.87088C15.3727 1.2947 14.5193 1.00134 13.3769 1.00134C12.7965 0.987022 12.2194 1.08774 11.6837 1.29659C11.1508 1.089 10.5771 0.989031 10 1.0031C9.42219 0.989282 8.84762 1.08987 8.31444 1.29834C7.77922 1.0895 7.20293 0.988906 6.6231 1.0031C5.4808 1.0031 4.62739 1.29659 4.08602 1.87264V1.87277C3.67443 2.32537 3.47021 2.91148 3.51775 3.50383V4.00427C3.36886 4.20269 3.28891 4.43903 3.28851 4.6813V5.53654V5.53642C3.28891 5.85615 3.42785 6.16221 3.67388 6.38449C3.83849 6.91357 4.09916 7.41227 4.44435 7.85895V8.45484C4.44408 8.5381 4.39531 8.61471 4.31724 8.65464L2.26378 9.69712C1.88257 9.89102 1.5641 10.1772 1.34171 10.5256C1.11946 10.874 1.00148 11.2718 1 11.6776V13.64C1 13.7354 1.04058 13.8269 1.11287 13.8945C1.18516 13.9621 1.28312 14 1.38524 14H18.6148C18.8238 14 18.9948 13.8443 19 13.6489L18.9999 13.6489ZM4.37891 11.6865V13.2889H1.77063V11.6865C1.77036 11.4091 1.85031 11.1367 2.00189 10.8981C2.15346 10.6596 2.37099 10.4636 2.6317 10.3309L4.6736 9.28851C4.83404 9.20701 4.96801 9.08657 5.06128 8.93988C5.15453 8.79308 5.20358 8.62555 5.20331 8.45488V7.7348C5.20304 7.65517 5.17469 7.57794 5.12242 7.51515C4.78098 7.09068 4.53106 6.60818 4.38659 6.09466C4.36616 6.01705 4.31873 5.94798 4.25168 5.89837C4.13182 5.81222 4.06087 5.67961 4.05912 5.53833V4.68136C4.05952 4.5662 4.10548 4.45518 4.18812 4.36991C4.25168 4.3036 4.28675 4.21758 4.28634 4.12867V3.48594C4.28728 3.47212 4.28728 3.45831 4.28634 3.44449C4.2592 3.04626 4.3972 2.65368 4.67172 2.34804C5.05695 1.93399 5.71969 1.72325 6.62886 1.72325V1.72337C6.93267 1.72136 7.23583 1.75163 7.53239 1.81342C7.51116 1.83326 7.48804 1.85122 7.46883 1.87282H7.46869C7.05659 2.32516 6.85233 2.9114 6.90042 3.50389V4.00432C6.75154 4.20274 6.67159 4.43908 6.67118 4.68136V5.53659V5.53647C6.67158 5.8562 6.81052 6.16226 7.05655 6.38454C7.22116 6.91362 7.48183 7.41232 7.82703 7.859V8.45489C7.82528 8.54117 7.77153 8.61916 7.68836 8.65658L5.64253 9.69716C5.25984 9.89181 4.94058 10.1794 4.71806 10.5295C4.49567 10.8797 4.3785 11.2794 4.3789 11.6865L4.37891 11.6865ZM14.8504 13.2889H5.14911V11.6865C5.14898 11.4091 5.2288 11.1367 5.38037 10.8981C5.53194 10.6596 5.74947 10.4636 6.01018 10.3309L8.05208 9.28851C8.21266 9.20701 8.34649 9.08657 8.43976 8.93988C8.53302 8.79308 8.5822 8.62555 8.58193 8.45488V7.7348C8.58166 7.65517 8.55317 7.57794 8.50103 7.51515C8.15946 7.09068 7.90954 6.60818 7.76506 6.09466C7.74464 6.01705 7.6972 5.94798 7.63029 5.89837C7.51043 5.81222 7.43934 5.67961 7.4376 5.53833V4.68136C7.438 4.5662 7.48396 4.45518 7.56673 4.36991C7.63015 4.3036 7.66522 4.21758 7.66496 4.12867V3.48594C7.66576 3.47212 7.66576 3.45831 7.66496 3.44449C7.63741 3.04677 7.77554 2.65471 8.05019 2.3499C8.43543 1.93585 9.09816 1.72511 10.0073 1.72511C10.9166 1.72511 11.5697 1.92491 11.9568 2.348C12.2339 2.65581 12.372 3.05227 12.3422 3.45353C12.3414 3.46671 12.3414 3.4799 12.3422 3.49309V4.13041C12.3418 4.21945 12.3768 4.30535 12.4404 4.37166C12.523 4.45706 12.569 4.56795 12.5694 4.68311V5.53835C12.5698 5.62889 12.5417 5.71768 12.4886 5.79353C12.4356 5.86938 12.3599 5.92903 12.2708 5.96495C12.1729 6.00564 12.0975 6.08263 12.0628 6.17744C11.9122 6.58661 11.6994 6.97352 11.431 7.32604C11.379 7.39448 11.327 7.45753 11.2788 7.50613C11.2218 7.57043 11.1905 7.6513 11.1902 7.73482V8.4657C11.1895 8.6419 11.2418 8.81468 11.3408 8.96453C11.4399 9.11448 11.5819 9.23542 11.7507 9.31364L13.9352 10.3345C14.2108 10.462 14.4426 10.6592 14.6043 10.9035C14.766 11.1479 14.8512 11.4298 14.8502 11.7172L14.8504 13.2889ZM18.2273 13.2889H15.6208V11.728C15.6214 11.3063 15.4952 10.893 15.2568 10.5349C15.0185 10.1769 14.6774 9.88845 14.2724 9.70256L12.0958 8.67992C12.0124 8.64137 11.96 8.56162 11.9608 8.47472V7.86613L12.0591 7.74005V7.74017C12.3387 7.36894 12.5654 6.96531 12.7334 6.53933C13.1053 6.32269 13.3316 5.94244 13.3324 5.53289V4.68132C13.332 4.43907 13.252 4.20271 13.1032 4.00428V3.50925C13.1543 2.91423 12.9498 2.32474 12.5349 1.87088C12.5136 1.84928 12.4905 1.83132 12.4694 1.80972C12.7673 1.74857 13.0717 1.71893 13.3767 1.72144C14.2879 1.72144 14.9467 1.93204 15.3339 2.34433V2.34446C15.6109 2.65226 15.7491 3.0486 15.7192 3.44985C15.7184 3.46304 15.7184 3.47622 15.7192 3.48941V4.12674C15.719 4.21578 15.7539 4.30168 15.8175 4.36799C15.9001 4.45338 15.9461 4.5644 15.9465 4.67943V5.53467C15.9469 5.62534 15.9188 5.71413 15.8657 5.78998C15.8126 5.86584 15.737 5.92536 15.6479 5.9614C15.5499 6.00209 15.4745 6.07908 15.4399 6.17377C15.2919 6.5838 15.0818 6.97184 14.8157 7.326C14.7637 7.39444 14.7117 7.45748 14.6635 7.50609C14.6065 7.57039 14.5752 7.65126 14.5749 7.73478V8.46566C14.5744 8.64185 14.6265 8.81464 14.7255 8.96449C14.8247 9.11444 14.9666 9.23537 15.1355 9.3136L17.32 10.3453C17.5952 10.473 17.8266 10.6703 17.988 10.9147C18.1493 11.1591 18.2343 11.4407 18.233 11.728L18.2273 13.2889Z" fill="#1F1F1F" stroke="#1F1F1F" stroke-width="0.5"/>
</svg>
