<svg width="17" height="17" viewBox="0 0 17 17" fill="none" xmlns="http://www.w3.org/2000/svg">
<path d="M12.1565 9.20856C12.4629 10.23 13.3997 10.9791 14.5207 10.9791C15.8904 10.979 17 9.86966 17 8.50002C17 7.13114 15.8904 6.02075 14.5207 6.02075C13.3995 6.02075 12.4635 6.77049 12.1565 7.79148H8.43626C8.36571 7.37437 8.23586 6.97859 8.05308 6.61218L11.1063 4.39409C11.5332 4.74139 12.0698 4.95824 12.6627 4.95824C14.0323 4.95824 15.142 3.84861 15.142 2.47897C15.1421 1.11039 14.0325 0 12.6628 0C11.294 0 10.1836 1.11039 10.1836 2.47927C10.1836 2.73986 10.2347 2.98605 10.3096 3.22189L7.22154 5.4646C6.45536 4.71413 5.40797 4.25001 4.24999 4.25001C1.90294 4.25001 0 6.15295 0 8.50002C0 10.848 1.90294 12.75 4.24999 12.75C5.40797 12.75 6.45593 12.2859 7.22226 11.5351L10.3094 13.7781C10.2345 14.0138 10.1834 14.26 10.1834 14.521C10.1835 15.8905 11.2938 17 12.6628 17C14.0324 17 15.1421 15.8905 15.1421 14.521C15.1421 13.1518 14.0324 12.0416 12.6628 12.0416C12.0699 12.0416 11.5326 12.2591 11.1064 12.6061L8.05304 10.3877C8.23551 10.022 8.36566 9.62563 8.43623 9.20852L12.1565 9.20856ZM14.5207 7.43752C15.1068 7.43752 15.5832 7.9142 15.5832 8.50002C15.5832 9.0861 15.1068 9.56252 14.5207 9.56252C13.9349 9.56252 13.4582 9.0861 13.4582 8.50002C13.4582 7.9142 13.9349 7.43752 14.5207 7.43752ZM12.6628 1.41692C13.2487 1.41692 13.7253 1.89361 13.7253 2.47942C13.7253 3.06524 13.2487 3.54193 12.6628 3.54193C12.077 3.54193 11.6003 3.06524 11.6003 2.47942C11.6003 1.89349 12.077 1.41692 12.6628 1.41692ZM4.25013 11.3339C2.68811 11.3339 1.41691 10.0631 1.41691 8.50032C1.41691 6.93844 2.68811 5.66708 4.25013 5.66708C5.81216 5.66708 7.08336 6.93844 7.08336 8.50032C7.08336 10.0631 5.81216 11.3339 4.25013 11.3339ZM12.6628 13.4589C13.2487 13.4589 13.7253 13.9353 13.7253 14.5214C13.7253 15.107 13.2487 15.5839 12.6628 15.5839C12.077 15.5839 11.6003 15.107 11.6003 14.5214C11.6003 13.9353 12.077 13.4589 12.6628 13.4589Z" fill="#1F1F1F"/>
</svg>
